<svg class="marks" width="1428" height="729" viewBox="0 0 1428 729" version="1.1" xmlns="http://www.w3.org/2000/svg" xmlns:xlink="http://www.w3.org/1999/xlink"><rect width="1428" height="729" style="fill: floralwhite;"></rect><g transform="translate(498,160)"><g class="mark-group role-frame root"><g transform="translate(0,0)"><path class="background" d="M0.5,0.5h400v400h-400Z" style="fill: none; stroke: #ddd;"></path><g><g class="mark-group role-axis"><g transform="translate(0.5,400.5)"><path class="background" d="M0,0h0v0h0Z" style="pointer-events: none; fill: none;"></path><g><g class="mark-rule role-axis-grid" style="pointer-events: none;"><line transform="translate(0,-400)" x2="0" y2="400" style="fill: none; stroke: #ddd; stroke-width: 1; opacity: 1;"></line><line transform="translate(50,-400)" x2="0" y2="400" style="fill: none; stroke: #ddd; stroke-width: 1; opacity: 1;"></line><line transform="translate(100,-400)" x2="0" y2="400" style="fill: none; stroke: #ddd; stroke-width: 1; opacity: 1;"></line><line transform="translate(150,-400)" x2="0" y2="400" style="fill: none; stroke: #ddd; stroke-width: 1; opacity: 1;"></line><line transform="translate(200,-400)" x2="0" y2="400" style="fill: none; stroke: #ddd; stroke-width: 1; opacity: 1;"></line><line transform="translate(250,-400)" x2="0" y2="400" style="fill: none; stroke: #ddd; stroke-width: 1; opacity: 1;"></line><line transform="translate(300,-400)" x2="0" y2="400" style="fill: none; stroke: #ddd; stroke-width: 1; opacity: 1;"></line><line transform="translate(350,-400)" x2="0" y2="400" style="fill: none; stroke: #ddd; stroke-width: 1; opacity: 1;"></line><line transform="translate(400,-400)" x2="0" y2="400" style="fill: none; stroke: #ddd; stroke-width: 1; opacity: 1;"></line></g></g><path class="foreground" d="" style="pointer-events: none; display: none; fill: none;"></path></g></g><g class="mark-group role-axis"><g transform="translate(0.5,0.5)"><path class="background" d="M0,0h0v0h0Z" style="pointer-events: none; fill: none;"></path><g><g class="mark-rule role-axis-grid" style="pointer-events: none;"><line transform="translate(0,400)" x2="400" y2="0" style="fill: none; stroke: #ddd; stroke-width: 1; opacity: 1;"></line><line transform="translate(0,350)" x2="400" y2="0" style="fill: none; stroke: #ddd; stroke-width: 1; opacity: 1;"></line><line transform="translate(0,300)" x2="400" y2="0" style="fill: none; stroke: #ddd; stroke-width: 1; opacity: 1;"></line><line transform="translate(0,250)" x2="400" y2="0" style="fill: none; stroke: #ddd; stroke-width: 1; opacity: 1;"></line><line transform="translate(0,200)" x2="400" y2="0" style="fill: none; stroke: #ddd; stroke-width: 1; opacity: 1;"></line><line transform="translate(0,150)" x2="400" y2="0" style="fill: none; stroke: #ddd; stroke-width: 1; opacity: 1;"></line><line transform="translate(0,100)" x2="400" y2="0" style="fill: none; stroke: #ddd; stroke-width: 1; opacity: 1;"></line><line transform="translate(0,50)" x2="400" y2="0" style="fill: none; stroke: #ddd; stroke-width: 1; opacity: 1;"></line><line transform="translate(0,0)" x2="400" y2="0" style="fill: none; stroke: #ddd; stroke-width: 1; opacity: 1;"></line></g></g><path class="foreground" d="" style="pointer-events: none; display: none; fill: none;"></path></g></g><g class="mark-group role-axis"><g transform="translate(0.5,400.5)"><path class="background" d="M0,0h0v0h0Z" style="pointer-events: none; fill: none;"></path><g><g class="mark-rule role-axis-tick" style="pointer-events: none;"><line transform="translate(0,0)" x2="0" y2="5" style="fill: none; stroke: #888; stroke-width: 1; opacity: 1;"></line><line transform="translate(50,0)" x2="0" y2="5" style="fill: none; stroke: #888; stroke-width: 1; opacity: 1;"></line><line transform="translate(100,0)" x2="0" y2="5" style="fill: none; stroke: #888; stroke-width: 1; opacity: 1;"></line><line transform="translate(150,0)" x2="0" y2="5" style="fill: none; stroke: #888; stroke-width: 1; opacity: 1;"></line><line transform="translate(200,0)" x2="0" y2="5" style="fill: none; stroke: #888; stroke-width: 1; opacity: 1;"></line><line transform="translate(250,0)" x2="0" y2="5" style="fill: none; stroke: #888; stroke-width: 1; opacity: 1;"></line><line transform="translate(300,0)" x2="0" y2="5" style="fill: none; stroke: #888; stroke-width: 1; opacity: 1;"></line><line transform="translate(350,0)" x2="0" y2="5" style="fill: none; stroke: #888; stroke-width: 1; opacity: 1;"></line><line transform="translate(400,0)" x2="0" y2="5" style="fill: none; stroke: #888; stroke-width: 1; opacity: 1;"></line></g><g class="mark-text role-axis-label" style="pointer-events: none;"><text text-anchor="start" transform="translate(0,15)" style="font-family: sans-serif; font-size: 10px; fill: #000; opacity: 1;">-200</text><text text-anchor="middle" transform="translate(50,15)" style="font-family: sans-serif; font-size: 10px; fill: #000; opacity: 1;">-150</text><text text-anchor="middle" transform="translate(100,15)" style="font-family: sans-serif; font-size: 10px; fill: #000; opacity: 1;">-100</text><text text-anchor="middle" transform="translate(150,15)" style="font-family: sans-serif; font-size: 10px; fill: #000; opacity: 1;">-50</text><text text-anchor="middle" transform="translate(200,15)" style="font-family: sans-serif; font-size: 10px; fill: #000; opacity: 1;">0</text><text text-anchor="middle" transform="translate(250,15)" style="font-family: sans-serif; font-size: 10px; fill: #000; opacity: 1;">50</text><text text-anchor="middle" transform="translate(300,15)" style="font-family: sans-serif; font-size: 10px; fill: #000; opacity: 1;">100</text><text text-anchor="middle" transform="translate(350,15)" style="font-family: sans-serif; font-size: 10px; fill: #000; opacity: 1;">150</text><text text-anchor="end" transform="translate(400,15)" style="font-family: sans-serif; font-size: 10px; fill: #000; opacity: 1;">200</text></g><g class="mark-rule role-axis-domain" style="pointer-events: none;"><line transform="translate(0,0)" x2="400" y2="0" style="fill: none; stroke: #888; stroke-width: 1; opacity: 1;"></line></g><g class="mark-text role-axis-title" style="pointer-events: none;"><text text-anchor="middle" transform="translate(200,30)" style="font-family: sans-serif; font-size: 11px; font-weight: bold; fill: #000; opacity: 1;">x</text></g></g><path class="foreground" d="" style="pointer-events: none; display: none; fill: none;"></path></g></g><g class="mark-group role-axis"><g transform="translate(0.5,0.5)"><path class="background" d="M0,0h0v0h0Z" style="pointer-events: none; fill: none;"></path><g><g class="mark-rule role-axis-tick" style="pointer-events: none;"><line transform="translate(0,400)" x2="-5" y2="0" style="fill: none; stroke: #888; stroke-width: 1; opacity: 1;"></line><line transform="translate(0,350)" x2="-5" y2="0" style="fill: none; stroke: #888; stroke-width: 1; opacity: 1;"></line><line transform="translate(0,300)" x2="-5" y2="0" style="fill: none; stroke: #888; stroke-width: 1; opacity: 1;"></line><line transform="translate(0,250)" x2="-5" y2="0" style="fill: none; stroke: #888; stroke-width: 1; opacity: 1;"></line><line transform="translate(0,200)" x2="-5" y2="0" style="fill: none; stroke: #888; stroke-width: 1; opacity: 1;"></line><line transform="translate(0,150)" x2="-5" y2="0" style="fill: none; stroke: #888; stroke-width: 1; opacity: 1;"></line><line transform="translate(0,100)" x2="-5" y2="0" style="fill: none; stroke: #888; stroke-width: 1; opacity: 1;"></line><line transform="translate(0,50)" x2="-5" y2="0" style="fill: none; stroke: #888; stroke-width: 1; opacity: 1;"></line><line transform="translate(0,0)" x2="-5" y2="0" style="fill: none; stroke: #888; stroke-width: 1; opacity: 1;"></line></g><g class="mark-text role-axis-label" style="pointer-events: none;"><text text-anchor="end" transform="translate(-7,403)" style="font-family: sans-serif; font-size: 10px; fill: #000; opacity: 1;">-200</text><text text-anchor="end" transform="translate(-7,353)" style="font-family: sans-serif; font-size: 10px; fill: #000; opacity: 1;">-150</text><text text-anchor="end" transform="translate(-7,303)" style="font-family: sans-serif; font-size: 10px; fill: #000; opacity: 1;">-100</text><text text-anchor="end" transform="translate(-7,253)" style="font-family: sans-serif; font-size: 10px; fill: #000; opacity: 1;">-50</text><text text-anchor="end" transform="translate(-7,203)" style="font-family: sans-serif; font-size: 10px; fill: #000; opacity: 1;">0</text><text text-anchor="end" transform="translate(-7,153)" style="font-family: sans-serif; font-size: 10px; fill: #000; opacity: 1;">50</text><text text-anchor="end" transform="translate(-7,103)" style="font-family: sans-serif; font-size: 10px; fill: #000; opacity: 1;">100</text><text text-anchor="end" transform="translate(-7,53)" style="font-family: sans-serif; font-size: 10px; fill: #000; opacity: 1;">150</text><text text-anchor="end" transform="translate(-7,3)" style="font-family: sans-serif; font-size: 10px; fill: #000; opacity: 1;">200</text></g><g class="mark-rule role-axis-domain" style="pointer-events: none;"><line transform="translate(0,400)" x2="0" y2="-400" style="fill: none; stroke: #888; stroke-width: 1; opacity: 1;"></line></g><g class="mark-text role-axis-title" style="pointer-events: none;"><text text-anchor="middle" transform="translate(-43,200) rotate(-90) translate(0,-2)" style="font-family: sans-serif; font-size: 11px; font-weight: bold; fill: #000; opacity: 1;">y</text></g></g><path class="foreground" d="" style="pointer-events: none; display: none; fill: none;"></path></g></g><g class="mark-group role-scope pathgroup"><g transform="translate(0,0)"><path class="background" d="M0,0h400v400h-400Z" style="fill: none;"></path><g><g class="mark-line role-mark marks"><path d="M225.9196850893487,58.964136927172326L227.26110667751806,59.20500779442386L226.0605236633964,63.25813921046883L227.98009958216574,62.782030756866945L224.75704427546387,60.52630557941168L223.3790842903288,61.72367951835276L222.576095972146,62.420698285288665L222.68295126875768,65.30374118662512L222.88123859678254,60.62987277019274L224.17304039583595,60.94976269673764L223.2057653005605,60.25749109344281L224.6924446342731,61.59665259687639L223.77253093131338,62.043285379414485L222.6614697661505,60.92536569726712L224.0620900624988,63.57995145594884L246.1027835505447,54.15747796173376L244.97112762762208,53.799059553058285L239.09349661161667,72.47841823330839L235.71731075138428,82.30672630815144L236.04996167283593,85.2223405444787L234.5254168975414,84.51236327280651L234.7517003740849,85.93310805842039L236.23738402250308,85.23717045896792L235.09088466621714,85.70658716395694L225.81011742246838,84.78578235811894L225.9474371323597,82.90256758966139L223.80256585144275,84.3829759464946L221.86330354512808,81.27115065708863L222.5227324899496,82.46056431056931L221.4637656752268,80.92164642310276L220.35519394067168,79.98331817236597L215.8513569747492,75.51709338911708L214.8456007708682,74.67563676088686L214.28153279256043,75.6105695566089L213.0982771807678,76.74114814670752L214.04691473280027,77.59080551268131L213.1150957127959,78.79403805947032L199.89452637192488,79.99650090821287L200.90950201413017,76.41121989751466L204.17216812561648,72.68458702914234L204.88317362670506,73.46228495692006L244.6729515646296,117.02067295741254L244.80748898618225,118.38342960560651L242.00504268535764,115.36988992174098L238.25013084255966,119.06997535331931L232.06420697219053,122.53905302825103L206.09487198100715,143.42531848802702L204.73359911145934,144.19140125864226L205.43208732294275,143.42634624514642L203.43925155714143,143.85638292468798L205.61910219980183,137.33741320149244L205.2728522400743,138.36835770240984L208.58178364230423,138.23847861908288L206.81049524098012,136.27430101210442L201.1789989799452,137.683365310827L210.13358626537152,152.4808960389621L211.61955311355118,151.78120663243456L211.85344473119216,152.88305791983993L210.6476409876755,152.37226352528884L211.61980441965454,154.23319128853268L212.99754384076058,155.07824142694605L215.85371074920502,154.27500256047094L215.8304920030592,151.81825421344345L216.70886782974338,149.02320424992803L215.81044695126454,151.13607873038154L215.72751427436881,152.23472732870476L222.44754542899966,159.65425109875838L221.47294568027314,158.83903849161473L223.01961450561757,159.0695125403184L222.73592950676027,155.85058271624757L225.78798593329932,155.95017861607516L224.26510007747567,154.4337308424586L224.08113174981762,156.1871542182796L222.31783280266643,157.39897559058699L222.18078532115055,160.588421272734L223.40576607128799,159.32168361369747L215.5888971495054,157.33959993964882L205.9421164512929,159.17130829074733L207.86688144295894,164.2638061017792L209.25211428912291,164.97902310367593L211.78717587503667,162.95616232253997L118.01555432867394,-153.825216327275" style="fill: none; stroke: #4c78a8; stroke-width: 1;"></path></g></g><path class="foreground" d="" style="display: none; fill: none;"></path></g><g transform="translate(0,0)"><path class="background" d="M0,0h400v400h-400Z" style="fill: none;"></path><g><g class="mark-line role-mark marks"><path d="M211.78717587503667,562.95616232254L118.01555432867394,246.174783672725L119.18230705359998,245.67186168813646L118.0125332351534,246.0730587368289L120.22142912567637,246.068539743019L120.35371143220772,244.95749966599894L128.74118516206022,248.75378199964143L123.2913471403408,248.77125519865322L122.54904203422858,247.21269488792154L131.99648187817007,255.3662281634601L132.41710291181482,251.6656452475182L131.45163487011723,250.6659115183918L130.84682712343022,251.9887333416384L131.5742230987928,251.20431473988853L130.850376046304,252.3454450416951L127.8675784832043,250.8241525710037L127.54388549065459,249.42595208787532L117.63619437864321,241.7557885091293L118.44548021944009,241.1240145873168L119.16060504300914,241.89202137320942L117.98333192331756,240.08430596191116L98.63360802413348,226.21646882473635L95.3667143520085,226.6123203514622L95.06128068449556,224.87202900178573L96.89481960536625,227.54367093763804L95.80460661391339,223.25083613180635L95.74751030633655,224.66023995487552L86.42915625235275,235.29055192594024L88.30411593934474,231.14264172323428L87.2429984145042,231.54154761206942L87.54926709108628,228.91444538550206L89.34206056702897,228.09959181768065L88.0898795342631,227.2425717461764L86.08750483661248,227.13460389152473L92.59196546588822,228.61126570479956L117.97476722673588,248.87715266759764L131.0194402710962,259.3913328076901L132.1400103805031,259.11862363422165L135.63226663298963,260.9939861721508L135.06768665632097,262.0438584594334L134.66268248155524,261.03159231749504L133.08605496013672,261.45288994916774L133.98090538863744,262.2057391613143L134.80514627307969,263.55005187061874L134.20808959971066,262.66919264432903L133.44605031979836,261.89382945496584L133.46149905466763,263.5483221896042L132.27593798684097,264.53024064339405L128.06193623932865,281.1311180043389L122.91693333936718,272.0534701778515L120.33901946111058,271.80500240831157L121.07522651152334,272.7874444167076L122.23960857828018,273.78178189752794L121.27670341847625,272.50435973471525L127.62076660136137,272.35843775128365L125.95932170632136,273.11602885908985L130.95464789636355,273.8647417747847L132.22827082570166,273.2676716916335L132.56011196391137,271.5476033107117L130.89630119765565,269.7359445582903L131.68001654447676,270.52906417639036L131.85601537736005,271.69349064948574L132.88962217300923,268.01163162763817L133.23032438995426,269.3102885446416L125.9576493878531,283.4695575435088L124.72954361655275,284.29157772531653L123.00764809368161,286.1761317511873L119.8904340165293,277.23287604885496L119.60962001970039,275.480406049389L118.43608278083796,275.6426931587109L121.87520410034453,278.99424919050705L120.3683991579194,280.1712696969291L115.773646120955,272.69845887001526L119.94427519062702,272.50179356172885L122.0403939734868,272.99843388117216L123.2889163323037,276.4541816503805L113.34873424036016,264.9557919820773L94.56480088986467,256.94757678523865L95.5618173423697,254.59489852700293L94.07675772831965,255.28284535936513L95.87603401361201,258.62506026169666L97.39108036600658,257.06423614671934L95.73120184961516,248.3706744071804L95.03787276259334,249.66575949658164L100.63647659586246,253.12501287405865L99.04242809302804,255.52841154304292L99.9896423227143,255.13344227224763L101.51707576783406,252.95302791974424L102.2373266739375,252.23674806127087L103.96974805450856,241.2962645487986L104.28471271449087,242.78145200483348L106.30767430994052,242.48809051186956L108.76195053414448,240.36336710341897L108.21077154263736,238.9772804215503L110.75772341985383,241.90541416454298L115.50071802492312,243.69256506790634L117.07204871303487,244.79691423929683L116.54684577390253,238.50969186443783L119.26383692941216,238.4363398148705L116.78194900009862,237.54301017796257L116.13607284197434,236.45479787389723L116.0792090943933,235.20957955324917L117.0360106340234,233.8313265861734L115.9856604983446,233.82838139772338L115.04197820244843,235.6479334520656L113.26713341011411,234.5276920339143L113.60841737311256,236.68726127420712L112.79633801158371,236.07392731497833L102.3601266931903,222.3748562921676L100.67551366027561,221.30246966494957L101.74383509559503,220.42546806166L104.96860655474529,217.36453634595838L105.0309666110665,218.68411306620308L103.83583662458437,218.41201997677143L103.38202149428525,216.6766757849616L100.41653403449715,216.74607615010356L101.12274631697919,219.0595932370046L103.86989737295255,215.27775495220007L105.00831370442154,214.60054522778717L104.86065613164477,215.7321092248567L104.66655640678795,214.72192729926672L105.71520060744429,212.5868769769487L101.19886919197478,212.15266843187618L101.00398953763158,211.07607512816503L101.3816124064436,212.0708001359275L100.44273716486833,211.36332371324423L102.9715571905877,211.39221726303515L101.98027579083396,210.53812276322975L102.3613018326264,208.99679403988802L100.93694875381283,208.92915557563282L102.5189746945528,207.85926286326264L105.27781379108909,212.80124452082498L102.68840223544242,212.3244541029141L58.03336855009002,198.5285535172375L58.154807835713484,197.52588930613987L59.165704104166764,198.25790436879043L61.391318415998285,197.97090089879435L63.27755811147841,197.04402818758697L61.48307031815904,195.17402013079996L62.85264224210272,195.26631631626898L63.204450633386955,194.23359828900274L64.00656504541047,195.76746705711744L65.57959083609211,194.80557835947758L49.04412717594687,211.91682519491258L50.111981884889104,211.52225696891608L42.53135596140109,204.0811761080021L43.47239663289099,205.19297450659923L43.41812069805749,208.46542422793357L49.05034225156399,189.99560902966005L-491.34756908430967,311.18393039051693" style="fill: none; stroke: #f58518; stroke-width: 1;"></path></g></g><path class="foreground" d="" style="display: none; fill: none;"></path></g><g transform="translate(0,0)"><path class="background" d="M0,0h400v400h-400Z" style="fill: none;"></path><g><g class="mark-line role-mark marks"><path d="M449.05034225156396,189.99560902966005L-91.34756908430961,311.18393039051693" style="fill: none; stroke: #e45756; stroke-width: 1;"></path></g></g><path class="foreground" d="" style="display: none; fill: none;"></path></g><g transform="translate(0,0)"><path class="background" d="M0,0h400v400h-400Z" style="fill: none;"></path><g><g class="mark-line role-mark marks"><path d="M849.0503422515638,189.99560902966005L308.6524309156904,311.18393039051693L308.532433869227,312.2933589773896L306.0889867717127,305.30230885483337L309.4417665430049,305.3416160682094L310.2133114869835,304.5124399895462L310.6178853837906,302.75874519837987L310.67363848321384,301.2256311518295L314.58758850653976,306.41943533080575L312.216635280485,306.9430727839202L311.1629346316262,306.9897451057058L310.6388045290964,306.0940878667312L309.6381612377544,306.3712826370504L310.43428771838654,304.39243882909574L305.51424280339825,307.28065498538217L306.73104407915224,307.5211889493838L306.7128306119737,308.56796295798586L307.45605337152125,307.0724111312729L346.7529485652325,344.7616369543578L347.9339393950653,343.40692381367603L347.67422303713505,344.95041775045945L355.63167568888105,343.4107451077199L357.34479393307663,344.64301235517775L360.1369512114041,347.99335457722253L357.43834011459467,342.99865000768966L356.32255949783416,342.63070738514386L355.28428434201373,340.21760811232224L359.4464589555891,343.63613158745545L358.2385523209526,343.2704290361076L353.04465494966644,342.0689006231167L352.25629176263567,342.71971981824765L352.1453082893346,345.416105657146L421.5851418206379,243.38419666582047" style="fill: none; stroke: #72b7b2; stroke-width: 1;"></path></g></g><path class="foreground" d="" style="display: none; fill: none;"></path></g><g transform="translate(0,0)"><path class="background" d="M0,0h400v400h-400Z" style="fill: none;"></path><g><g class="mark-line role-mark marks"><path d="M-47.854691710665406,345.416105657146L21.58514182063783,243.38419666582047L20.931503334013257,241.47826964063887L15.46093450972458,238.4966285524511L14.95669181604981,236.6794719657456L12.983621680877548,236.61638999846008L13.032637356274279,240.47212337277472L11.761150135494546,241.89872882101105L12.37662129481086,240.66343663729324L11.045574253123988,237.25336083965644L10.398999856296768,238.89551068727224L10.14382554777464,237.4855408358994L10.484095593046987,239.13602223710555L8.738771275053182,240.80174233290705L5.840042532074477,235.31954898130283L4.738811424995333,235.7154934632235L-0.4507160751172705,226.90300157903587" style="fill: none; stroke: #54a24b; stroke-width: 1;"></path></g></g><path class="foreground" d="" style="display: none; fill: none;"></path></g><g transform="translate(0,0)"><path class="background" d="M0,0h400v400h-400Z" style="fill: none;"></path><g><g class="mark-line role-mark marks"><path d="M404.73881142499533,235.7154934632235L399.54928392488273,226.90300157903587L398.73280843879627,225.82104521700307L405.11829205271346,213.82311119549598" style="fill: none; stroke: #eeca3b; stroke-width: 1;"></path></g></g><path class="foreground" d="" style="display: none; fill: none;"></path></g><g transform="translate(0,0)"><path class="background" d="M0,0h400v400h-400Z" style="fill: none;"></path><g><g class="mark-line role-mark marks"><path d="M-1.2671915612037026,225.82104521700307L5.1182920527134,213.82311119549598L5.7925439184325,212.12750710747468L5.543994373759801,213.26695290067846L7.186108619465075,214.62093214184708L7.71925391160994,215.64511834010585L6.889595103571139,214.48391321493796L6.138031064325389,215.57089379573134L0.5624642920918461,215.80533074325183L-0.38398066468201364,215.32575646016204" style="fill: none; stroke: #b279a2; stroke-width: 1;"></path></g></g><path class="foreground" d="" style="display: none; fill: none;"></path></g><g transform="translate(0,0)"><path class="background" d="M0,0h400v400h-400Z" style="fill: none;"></path><g><g class="mark-line role-mark marks"><path d="M400.5624642920918,215.80533074325183L399.616019335318,215.32575646016204L399.0511893344986,213.79276587487698L367.4368985466841,206.3075553946959" style="fill: none; stroke: #ff9da6; stroke-width: 1;"></path></g></g><path class="foreground" d="" style="display: none; fill: none;"></path></g></g><g class="mark-group role-legend"><g transform="translate(869,0)"><path class="background" d="M0,0h56v118h-56Z" style="pointer-events: none; fill: none;"></path><g><g class="mark-group role-legend-entry"><g transform="translate(0,16)"><path class="background" d="M0,0h0v0h0Z" style="pointer-events: none; fill: none;"></path><g><g class="mark-group role-scope"><g transform="translate(0,0)"><path class="background" d="M0,0h56v11h-56Z" style="pointer-events: none; fill: none; opacity: 1;"></path><g><g class="mark-symbol role-legend-symbol" style="pointer-events: none;"><path transform="translate(6,6)" d="M-5,0L5,0" style="fill: none; stroke: #4c78a8; stroke-width: 1.5; opacity: 1;"></path></g><g class="mark-text role-legend-label" style="pointer-events: none;"><text text-anchor="start" transform="translate(16,9)" style="font-family: sans-serif; font-size: 10px; fill: #000; opacity: 1;">segs0</text></g></g><path class="foreground" d="" style="pointer-events: none; display: none; fill: none;"></path></g><g transform="translate(0,13)"><path class="background" d="M0,0h56v11h-56Z" style="pointer-events: none; fill: none; opacity: 1;"></path><g><g class="mark-symbol role-legend-symbol" style="pointer-events: none;"><path transform="translate(6,6)" d="M-5,0L5,0" style="fill: none; stroke: #f58518; stroke-width: 1.5; opacity: 1;"></path></g><g class="mark-text role-legend-label" style="pointer-events: none;"><text text-anchor="start" transform="translate(16,9)" style="font-family: sans-serif; font-size: 10px; fill: #000; opacity: 1;">segs1</text></g></g><path class="foreground" d="" style="pointer-events: none; display: none; fill: none;"></path></g><g transform="translate(0,26)"><path class="background" d="M0,0h56v11h-56Z" style="pointer-events: none; fill: none; opacity: 1;"></path><g><g class="mark-symbol role-legend-symbol" style="pointer-events: none;"><path transform="translate(6,6)" d="M-5,0L5,0" style="fill: none; stroke: #e45756; stroke-width: 1.5; opacity: 1;"></path></g><g class="mark-text role-legend-label" style="pointer-events: none;"><text text-anchor="start" transform="translate(16,9)" style="font-family: sans-serif; font-size: 10px; fill: #000; opacity: 1;">segs2</text></g></g><path class="foreground" d="" style="pointer-events: none; display: none; fill: none;"></path></g><g transform="translate(0,39)"><path class="background" d="M0,0h56v11h-56Z" style="pointer-events: none; fill: none; opacity: 1;"></path><g><g class="mark-symbol role-legend-symbol" style="pointer-events: none;"><path transform="translate(6,6)" d="M-5,0L5,0" style="fill: none; stroke: #72b7b2; stroke-width: 1.5; opacity: 1;"></path></g><g class="mark-text role-legend-label" style="pointer-events: none;"><text text-anchor="start" transform="translate(16,9)" style="font-family: sans-serif; font-size: 10px; fill: #000; opacity: 1;">segs3</text></g></g><path class="foreground" d="" style="pointer-events: none; display: none; fill: none;"></path></g><g transform="translate(0,52)"><path class="background" d="M0,0h56v11h-56Z" style="pointer-events: none; fill: none; opacity: 1;"></path><g><g class="mark-symbol role-legend-symbol" style="pointer-events: none;"><path transform="translate(6,6)" d="M-5,0L5,0" style="fill: none; stroke: #54a24b; stroke-width: 1.5; opacity: 1;"></path></g><g class="mark-text role-legend-label" style="pointer-events: none;"><text text-anchor="start" transform="translate(16,9)" style="font-family: sans-serif; font-size: 10px; fill: #000; opacity: 1;">segs4</text></g></g><path class="foreground" d="" style="pointer-events: none; display: none; fill: none;"></path></g><g transform="translate(0,65)"><path class="background" d="M0,0h56v11h-56Z" style="pointer-events: none; fill: none; opacity: 1;"></path><g><g class="mark-symbol role-legend-symbol" style="pointer-events: none;"><path transform="translate(6,6)" d="M-5,0L5,0" style="fill: none; stroke: #eeca3b; stroke-width: 1.5; opacity: 1;"></path></g><g class="mark-text role-legend-label" style="pointer-events: none;"><text text-anchor="start" transform="translate(16,9)" style="font-family: sans-serif; font-size: 10px; fill: #000; opacity: 1;">segs5</text></g></g><path class="foreground" d="" style="pointer-events: none; display: none; fill: none;"></path></g><g transform="translate(0,78)"><path class="background" d="M0,0h56v11h-56Z" style="pointer-events: none; fill: none; opacity: 1;"></path><g><g class="mark-symbol role-legend-symbol" style="pointer-events: none;"><path transform="translate(6,6)" d="M-5,0L5,0" style="fill: none; stroke: #b279a2; stroke-width: 1.5; opacity: 1;"></path></g><g class="mark-text role-legend-label" style="pointer-events: none;"><text text-anchor="start" transform="translate(16,9)" style="font-family: sans-serif; font-size: 10px; fill: #000; opacity: 1;">segs6</text></g></g><path class="foreground" d="" style="pointer-events: none; display: none; fill: none;"></path></g><g transform="translate(0,91)"><path class="background" d="M0,0h56v11h-56Z" style="pointer-events: none; fill: none; opacity: 1;"></path><g><g class="mark-symbol role-legend-symbol" style="pointer-events: none;"><path transform="translate(6,6)" d="M-5,0L5,0" style="fill: none; stroke: #ff9da6; stroke-width: 1.5; opacity: 1;"></path></g><g class="mark-text role-legend-label" style="pointer-events: none;"><text text-anchor="start" transform="translate(16,9)" style="font-family: sans-serif; font-size: 10px; fill: #000; opacity: 1;">segs7</text></g></g><path class="foreground" d="" style="pointer-events: none; display: none; fill: none;"></path></g></g></g><path class="foreground" d="" style="pointer-events: none; display: none; fill: none;"></path></g></g><g class="mark-text role-legend-title" style="pointer-events: none;"><text text-anchor="start" transform="translate(0,9)" style="font-family: sans-serif; font-size: 11px; font-weight: bold; fill: #000; opacity: 1;">label</text></g></g><path class="foreground" d="" style="pointer-events: none; display: none; fill: none;"></path></g></g></g><path class="foreground" d="" style="display: none; fill: none;"></path></g></g></g></svg>