<svg class="marks" width="820" height="581" viewBox="0 0 820 581" version="1.1" xmlns="http://www.w3.org/2000/svg" xmlns:xlink="http://www.w3.org/1999/xlink"><rect width="820" height="581" style="fill: floralwhite;"></rect><g transform="translate(101,10)"><g class="mark-group role-frame root"><g transform="translate(0,0)"><path class="background" d="M0.5,0.5h400v400h-400Z" style="fill: none; stroke: #ddd;"></path><g><g class="mark-group role-axis"><g transform="translate(0.5,400.5)"><path class="background" d="M0,0h0v0h0Z" style="pointer-events: none; fill: none;"></path><g><g class="mark-rule role-axis-grid" style="pointer-events: none;"><line transform="translate(0,-400)" x2="0" y2="400" style="fill: none; stroke: #ddd; stroke-width: 1; opacity: 1;"></line><line transform="translate(50,-400)" x2="0" y2="400" style="fill: none; stroke: #ddd; stroke-width: 1; opacity: 1;"></line><line transform="translate(100,-400)" x2="0" y2="400" style="fill: none; stroke: #ddd; stroke-width: 1; opacity: 1;"></line><line transform="translate(150,-400)" x2="0" y2="400" style="fill: none; stroke: #ddd; stroke-width: 1; opacity: 1;"></line><line transform="translate(200,-400)" x2="0" y2="400" style="fill: none; stroke: #ddd; stroke-width: 1; opacity: 1;"></line><line transform="translate(250,-400)" x2="0" y2="400" style="fill: none; stroke: #ddd; stroke-width: 1; opacity: 1;"></line><line transform="translate(300,-400)" x2="0" y2="400" style="fill: none; stroke: #ddd; stroke-width: 1; opacity: 1;"></line><line transform="translate(350,-400)" x2="0" y2="400" style="fill: none; stroke: #ddd; stroke-width: 1; opacity: 1;"></line><line transform="translate(400,-400)" x2="0" y2="400" style="fill: none; stroke: #ddd; stroke-width: 1; opacity: 1;"></line></g></g><path class="foreground" d="" style="pointer-events: none; display: none; fill: none;"></path></g></g><g class="mark-group role-axis"><g transform="translate(0.5,0.5)"><path class="background" d="M0,0h0v0h0Z" style="pointer-events: none; fill: none;"></path><g><g class="mark-rule role-axis-grid" style="pointer-events: none;"><line transform="translate(0,400)" x2="400" y2="0" style="fill: none; stroke: #ddd; stroke-width: 1; opacity: 1;"></line><line transform="translate(0,350)" x2="400" y2="0" style="fill: none; stroke: #ddd; stroke-width: 1; opacity: 1;"></line><line transform="translate(0,300)" x2="400" y2="0" style="fill: none; stroke: #ddd; stroke-width: 1; opacity: 1;"></line><line transform="translate(0,250)" x2="400" y2="0" style="fill: none; stroke: #ddd; stroke-width: 1; opacity: 1;"></line><line transform="translate(0,200)" x2="400" y2="0" style="fill: none; stroke: #ddd; stroke-width: 1; opacity: 1;"></line><line transform="translate(0,150)" x2="400" y2="0" style="fill: none; stroke: #ddd; stroke-width: 1; opacity: 1;"></line><line transform="translate(0,100)" x2="400" y2="0" style="fill: none; stroke: #ddd; stroke-width: 1; opacity: 1;"></line><line transform="translate(0,50)" x2="400" y2="0" style="fill: none; stroke: #ddd; stroke-width: 1; opacity: 1;"></line><line transform="translate(0,0)" x2="400" y2="0" style="fill: none; stroke: #ddd; stroke-width: 1; opacity: 1;"></line></g></g><path class="foreground" d="" style="pointer-events: none; display: none; fill: none;"></path></g></g><g class="mark-group role-axis"><g transform="translate(0.5,400.5)"><path class="background" d="M0,0h0v0h0Z" style="pointer-events: none; fill: none;"></path><g><g class="mark-rule role-axis-tick" style="pointer-events: none;"><line transform="translate(0,0)" x2="0" y2="5" style="fill: none; stroke: #888; stroke-width: 1; opacity: 1;"></line><line transform="translate(50,0)" x2="0" y2="5" style="fill: none; stroke: #888; stroke-width: 1; opacity: 1;"></line><line transform="translate(100,0)" x2="0" y2="5" style="fill: none; stroke: #888; stroke-width: 1; opacity: 1;"></line><line transform="translate(150,0)" x2="0" y2="5" style="fill: none; stroke: #888; stroke-width: 1; opacity: 1;"></line><line transform="translate(200,0)" x2="0" y2="5" style="fill: none; stroke: #888; stroke-width: 1; opacity: 1;"></line><line transform="translate(250,0)" x2="0" y2="5" style="fill: none; stroke: #888; stroke-width: 1; opacity: 1;"></line><line transform="translate(300,0)" x2="0" y2="5" style="fill: none; stroke: #888; stroke-width: 1; opacity: 1;"></line><line transform="translate(350,0)" x2="0" y2="5" style="fill: none; stroke: #888; stroke-width: 1; opacity: 1;"></line><line transform="translate(400,0)" x2="0" y2="5" style="fill: none; stroke: #888; stroke-width: 1; opacity: 1;"></line></g><g class="mark-text role-axis-label" style="pointer-events: none;"><text text-anchor="start" transform="translate(0,15)" style="font-family: sans-serif; font-size: 10px; fill: #000; opacity: 1;">-200</text><text text-anchor="middle" transform="translate(50,15)" style="font-family: sans-serif; font-size: 10px; fill: #000; opacity: 1;">-150</text><text text-anchor="middle" transform="translate(100,15)" style="font-family: sans-serif; font-size: 10px; fill: #000; opacity: 1;">-100</text><text text-anchor="middle" transform="translate(150,15)" style="font-family: sans-serif; font-size: 10px; fill: #000; opacity: 1;">-50</text><text text-anchor="middle" transform="translate(200,15)" style="font-family: sans-serif; font-size: 10px; fill: #000; opacity: 1;">0</text><text text-anchor="middle" transform="translate(250,15)" style="font-family: sans-serif; font-size: 10px; fill: #000; opacity: 1;">50</text><text text-anchor="middle" transform="translate(300,15)" style="font-family: sans-serif; font-size: 10px; fill: #000; opacity: 1;">100</text><text text-anchor="middle" transform="translate(350,15)" style="font-family: sans-serif; font-size: 10px; fill: #000; opacity: 1;">150</text><text text-anchor="end" transform="translate(400,15)" style="font-family: sans-serif; font-size: 10px; fill: #000; opacity: 1;">200</text></g><g class="mark-rule role-axis-domain" style="pointer-events: none;"><line transform="translate(0,0)" x2="400" y2="0" style="fill: none; stroke: #888; stroke-width: 1; opacity: 1;"></line></g><g class="mark-text role-axis-title" style="pointer-events: none;"><text text-anchor="middle" transform="translate(200,30)" style="font-family: sans-serif; font-size: 11px; font-weight: bold; fill: #000; opacity: 1;">x</text></g></g><path class="foreground" d="" style="pointer-events: none; display: none; fill: none;"></path></g></g><g class="mark-group role-axis"><g transform="translate(0.5,0.5)"><path class="background" d="M0,0h0v0h0Z" style="pointer-events: none; fill: none;"></path><g><g class="mark-rule role-axis-tick" style="pointer-events: none;"><line transform="translate(0,400)" x2="-5" y2="0" style="fill: none; stroke: #888; stroke-width: 1; opacity: 1;"></line><line transform="translate(0,350)" x2="-5" y2="0" style="fill: none; stroke: #888; stroke-width: 1; opacity: 1;"></line><line transform="translate(0,300)" x2="-5" y2="0" style="fill: none; stroke: #888; stroke-width: 1; opacity: 1;"></line><line transform="translate(0,250)" x2="-5" y2="0" style="fill: none; stroke: #888; stroke-width: 1; opacity: 1;"></line><line transform="translate(0,200)" x2="-5" y2="0" style="fill: none; stroke: #888; stroke-width: 1; opacity: 1;"></line><line transform="translate(0,150)" x2="-5" y2="0" style="fill: none; stroke: #888; stroke-width: 1; opacity: 1;"></line><line transform="translate(0,100)" x2="-5" y2="0" style="fill: none; stroke: #888; stroke-width: 1; opacity: 1;"></line><line transform="translate(0,50)" x2="-5" y2="0" style="fill: none; stroke: #888; stroke-width: 1; opacity: 1;"></line><line transform="translate(0,0)" x2="-5" y2="0" style="fill: none; stroke: #888; stroke-width: 1; opacity: 1;"></line></g><g class="mark-text role-axis-label" style="pointer-events: none;"><text text-anchor="end" transform="translate(-7,403)" style="font-family: sans-serif; font-size: 10px; fill: #000; opacity: 1;">-200</text><text text-anchor="end" transform="translate(-7,353)" style="font-family: sans-serif; font-size: 10px; fill: #000; opacity: 1;">-150</text><text text-anchor="end" transform="translate(-7,303)" style="font-family: sans-serif; font-size: 10px; fill: #000; opacity: 1;">-100</text><text text-anchor="end" transform="translate(-7,253)" style="font-family: sans-serif; font-size: 10px; fill: #000; opacity: 1;">-50</text><text text-anchor="end" transform="translate(-7,203)" style="font-family: sans-serif; font-size: 10px; fill: #000; opacity: 1;">0</text><text text-anchor="end" transform="translate(-7,153)" style="font-family: sans-serif; font-size: 10px; fill: #000; opacity: 1;">50</text><text text-anchor="end" transform="translate(-7,103)" style="font-family: sans-serif; font-size: 10px; fill: #000; opacity: 1;">100</text><text text-anchor="end" transform="translate(-7,53)" style="font-family: sans-serif; font-size: 10px; fill: #000; opacity: 1;">150</text><text text-anchor="end" transform="translate(-7,3)" style="font-family: sans-serif; font-size: 10px; fill: #000; opacity: 1;">200</text></g><g class="mark-rule role-axis-domain" style="pointer-events: none;"><line transform="translate(0,400)" x2="0" y2="-400" style="fill: none; stroke: #888; stroke-width: 1; opacity: 1;"></line></g><g class="mark-text role-axis-title" style="pointer-events: none;"><text text-anchor="middle" transform="translate(-43,200) rotate(-90) translate(0,-2)" style="font-family: sans-serif; font-size: 11px; font-weight: bold; fill: #000; opacity: 1;">y</text></g></g><path class="foreground" d="" style="pointer-events: none; display: none; fill: none;"></path></g></g><g class="mark-group role-scope pathgroup"><g transform="translate(0,0)"><path class="background" d="M0,0h400v400h-400Z" style="fill: none;"></path><g><g class="mark-line role-mark marks"><path d="M625.9196850893487,458.96413692717226L627.261106677518,459.2050077944238L626.0605236633965,463.2581392104688L627.9800995821657,462.782030756867L624.7570442754638,460.52630557941166L623.3790842903288,461.7236795183528L622.576095972146,462.4206982852886L622.6829512687577,465.3037411866252L622.8812385967825,460.6298727701927L624.173040395836,460.9497626967377L623.2057653005604,460.2574910934428L624.6924446342731,461.59665259687637L623.7725309313134,462.0432853794145L622.6614697661505,460.92536569726707L624.0620900624988,463.5799514559489L646.1027835505447,454.1574779617338L644.9711276276221,453.79905955305827L639.0934966116167,472.47841823330833L635.7173107513843,482.3067263081514L636.0499616728359,485.22234054447875L634.5254168975414,484.51236327280645L634.7517003740849,485.9331080584203L636.2373840225031,485.23717045896785L635.0908846662171,485.706587163957L625.8101174224685,484.7857823581189L625.9474371323597,482.9025675896614L623.8025658514428,484.3829759464945L621.863303545128,481.2711506570887L622.5227324899496,482.46056431056934L621.4637656752268,480.9216464231027L620.3551939406717,479.98331817236595L615.8513569747493,475.517093389117L614.8456007708683,474.67563676088685L614.2815327925605,475.6105695566089L613.0982771807678,476.74114814670753L614.0469147328002,477.5908055126813L613.1150957127959,478.7940380594703L599.8945263719249,479.9965009082128L600.9095020141301,476.4112198975146L604.1721681256165,472.6845870291424L604.883173626705,473.4622849569201L644.6729515646296,517.0206729574126L644.8074889861823,518.3834296056065L642.0050426853577,515.369889921741L638.2501308425597,519.0699753533194L632.0642069721905,522.539053028251L606.0948719810071,543.4253184880271L604.7335991114594,544.1914012586423L605.4320873229428,543.4263462451464L603.4392515571415,543.856382924688L605.6191021998018,537.3374132014925L605.2728522400743,538.3683577024099L608.5817836423042,538.2384786190829L606.8104952409801,536.2743010121044L601.1789989799452,537.683365310827L610.1335862653716,552.4808960389621L611.6195531135512,551.7812066324346L611.8534447311922,552.88305791984L610.6476409876755,552.3722635252888L611.6198044196545,554.2331912885327L612.9975438407605,555.0782414269461L615.853710749205,554.275002560471L615.8304920030591,551.8182542134434L616.7088678297434,549.0232042499281L615.8104469512646,551.1360787303815L615.7275142743688,552.2347273287048L622.4475454289997,559.6542510987584L621.4729456802731,558.8390384916147L623.0196145056176,559.0695125403184L622.7359295067603,555.8505827162476L625.7879859332993,555.9501786160752L624.2651000774756,554.4337308424585L624.0811317498176,556.1871542182796L622.3178328026664,557.3989755905869L622.1807853211506,560.588421272734L623.405766071288,559.3216836136975L615.5888971495054,557.3395999396489L605.9421164512929,559.1713082907473L607.866881442959,564.2638061017792L609.2521142891229,564.979023103676L611.7871758750366,562.95616232254L518.0155543286739,246.174783672725L519.1823070536,245.67186168813646L518.0125332351533,246.0730587368289L520.2214291256764,246.068539743019L520.3537114322078,244.95749966599894L528.7411851620602,248.75378199964143L523.2913471403408,248.77125519865322L522.5490420342286,247.21269488792154L531.99648187817,255.3662281634601L532.4171029118148,251.6656452475182L531.4516348701172,250.6659115183918L530.8468271234302,251.9887333416384L531.5742230987928,251.20431473988853L530.8503760463041,252.3454450416951L527.8675784832043,250.8241525710037L527.5438854906546,249.42595208787532L517.6361943786433,241.7557885091293L518.44548021944,241.1240145873168L519.1606050430091,241.89202137320942L517.9833319233176,240.08430596191116L498.6336080241335,226.21646882473635L495.3667143520085,226.6123203514622L495.06128068449556,224.87202900178573L496.89481960536625,227.54367093763804L495.8046066139134,223.25083613180635L495.74751030633655,224.66023995487552L486.4291562523528,235.29055192594024L488.30411593934474,231.14264172323428L487.2429984145042,231.54154761206942L487.5492670910862,228.91444538550206L489.34206056702897,228.09959181768065L488.0898795342631,227.2425717461764L486.0875048366124,227.13460389152473L492.5919654658882,228.61126570479956L517.9747672267358,248.87715266759764L531.0194402710962,259.3913328076901L532.1400103805031,259.11862363422165L535.6322666329896,260.9939861721508L535.067686656321,262.0438584594334L534.6626824815553,261.03159231749504L533.0860549601367,261.45288994916774L533.9809053886374,262.2057391613143L534.8051462730797,263.55005187061874L534.2080895997107,262.66919264432903L533.4460503197984,261.89382945496584L533.4614990546677,263.5483221896042L532.275937986841,264.53024064339405L528.0619362393286,281.1311180043389L522.9169333393672,272.0534701778515L520.3390194611106,271.80500240831157L521.0752265115234,272.7874444167076L522.2396085782802,273.78178189752794L521.2767034184762,272.50435973471525L527.6207666013613,272.35843775128365L525.9593217063214,273.11602885908985L530.9546478963636,273.8647417747847L532.2282708257017,273.2676716916335L532.5601119639114,271.5476033107117L530.8963011976557,269.7359445582903L531.6800165444768,270.52906417639036L531.8560153773601,271.69349064948574L532.8896221730092,268.01163162763817L533.2303243899543,269.3102885446416L525.957649387853,283.4695575435088L524.7295436165527,284.29157772531653L523.0076480936816,286.1761317511873L519.8904340165293,277.23287604885496L519.6096200197004,275.480406049389L518.436082780838,275.6426931587109L521.8752041003445,278.99424919050705L520.3683991579194,280.1712696969291L515.7736461209549,272.69845887001526L519.944275190627,272.50179356172885L522.0403939734867,272.99843388117216L523.2889163323036,276.4541816503805L513.3487342403602,264.9557919820773L494.56480088986467,256.94757678523865L495.5618173423697,254.59489852700293L494.07675772831965,255.28284535936513L495.876034013612,258.62506026169666L497.3910803660066,257.06423614671934L495.7312018496151,248.3706744071804L495.03787276259334,249.66575949658164L500.6364765958625,253.12501287405865L499.0424280930281,255.52841154304292L499.9896423227143,255.13344227224763L501.51707576783406,252.95302791974424L502.23732667393756,252.23674806127087L503.96974805450856,241.2962645487986L504.28471271449087,242.78145200483348L506.30767430994047,242.48809051186956L508.76195053414455,240.36336710341897L508.21077154263736,238.9772804215503L510.7577234198539,241.90541416454298L515.5007180249231,243.69256506790634L517.0720487130349,244.79691423929683L516.5468457739025,238.50969186443783L519.2638369294122,238.4363398148705L516.7819490000986,237.54301017796257L516.1360728419743,236.45479787389723L516.0792090943933,235.20957955324917L517.0360106340233,233.8313265861734L515.9856604983446,233.82838139772338L515.0419782024485,235.6479334520656L513.2671334101142,234.5276920339143L513.6084173731126,236.68726127420712L512.7963380115837,236.07392731497833L502.36012669319024,222.3748562921676L500.67551366027556,221.30246966494957L501.7438350955951,220.42546806166L504.9686065547453,217.36453634595838L505.0309666110665,218.68411306620308L503.8358366245844,218.41201997677143L503.38202149428525,216.6766757849616L500.41653403449715,216.74607615010356L501.1227463169792,219.0595932370046L503.86989737295255,215.27775495220007L505.0083137044215,214.60054522778717L504.8606561316448,215.7321092248567L504.66655640678795,214.72192729926672L505.7152006074443,212.5868769769487L501.1988691919748,212.15266843187618L501.0039895376316,211.07607512816503L501.38161240644365,212.0708001359275L500.44273716486833,211.36332371324423L502.9715571905877,211.39221726303515L501.980275790834,210.53812276322975L502.3613018326264,208.99679403988802L500.9369487538128,208.92915557563282L502.51897469455275,207.85926286326264L505.27781379108905,212.80124452082498L502.6884022354424,212.3244541029141L458.03336855009,198.5285535172375L458.1548078357135,197.52588930613987L459.16570410416676,198.25790436879043L461.3913184159982,197.97090089879435L463.2775581114784,197.04402818758697L461.4830703181591,195.17402013079996L462.8526422421027,195.26631631626898L463.20445063338695,194.23359828900274L464.00656504541047,195.76746705711744L465.5795908360921,194.80557835947758L449.04412717594687,211.91682519491258L450.1119818848891,211.52225696891608L442.5313559614011,204.0811761080021L443.472396632891,205.19297450659923L443.41812069805746,208.46542422793357L449.05034225156396,189.99560902966005L-91.34756908430961,311.18393039051693L-91.46756613077298,312.2933589773896L-93.91101322828729,305.30230885483337L-90.55823345699508,305.3416160682094L-89.78668851301649,304.5124399895462L-89.38211461620938,302.75874519837987L-89.32636151678616,301.2256311518295L-85.41241149346024,306.41943533080575L-87.78336471951502,306.9430727839202L-88.83706536837383,306.9897451057058L-89.36119547090362,306.0940878667312L-90.36183876224561,306.3712826370504L-89.56571228161346,304.39243882909574L-94.48575719660175,307.28065498538217L-93.26895592084776,307.5211889493838L-93.28716938802631,308.56796295798586L-92.54394662847875,307.0724111312729L-53.24705143476754,344.7616369543578L-52.06606060493474,343.40692381367603L-52.32577696286494,344.95041775045945L-44.368324311118926,343.4107451077199L-42.65520606692334,344.64301235517775L-39.863048788595904,347.99335457722253L-42.561659885405334,342.99865000768966L-43.677440502165865,342.63070738514386L-44.715715657986266,340.21760811232224L-40.553541044410906,343.63613158745545L-41.76144767904742,343.2704290361076L-46.955345050333534,342.0689006231167L-47.74370823736436,342.71971981824765L-47.854691710665406,345.416105657146L21.58514182063783,243.38419666582047L20.931503334013257,241.47826964063887L15.46093450972458,238.4966285524511L14.95669181604981,236.6794719657456L12.983621680877548,236.61638999846008L13.032637356274279,240.47212337277472L11.761150135494546,241.89872882101105L12.37662129481086,240.66343663729324L11.045574253123988,237.25336083965644L10.398999856296768,238.89551068727224L10.14382554777464,237.4855408358994L10.484095593046987,239.13602223710555L8.738771275053182,240.80174233290705L5.840042532074477,235.31954898130283L4.738811424995333,235.7154934632235L-0.4507160751172705,226.90300157903587L-1.2671915612037026,225.82104521700307L5.1182920527134,213.82311119549598L5.7925439184325,212.12750710747468L5.543994373759801,213.26695290067846L7.186108619465075,214.62093214184708L7.71925391160994,215.64511834010585L6.889595103571139,214.48391321493796L6.138031064325389,215.57089379573134L0.5624642920918461,215.80533074325183L-0.38398066468201364,215.32575646016204L-0.948810665501412,213.79276587487698L-32.56310145331588,206.3075553946959" style="fill: none; stroke: #4c78a8; stroke-width: 1;"></path></g></g><path class="foreground" d="" style="display: none; fill: none;"></path></g></g><g class="mark-group role-legend"><g transform="translate(666,0)"><path class="background" d="M0,0h48v27h-48Z" style="pointer-events: none; fill: none;"></path><g><g class="mark-group role-legend-entry"><g transform="translate(0,16)"><path class="background" d="M0,0h0v0h0Z" style="pointer-events: none; fill: none;"></path><g><g class="mark-group role-scope"><g transform="translate(0,0)"><path class="background" d="M0,0h48v11h-48Z" style="pointer-events: none; fill: none; opacity: 1;"></path><g><g class="mark-symbol role-legend-symbol" style="pointer-events: none;"><path transform="translate(6,6)" d="M-5,0L5,0" style="fill: none; stroke: #4c78a8; stroke-width: 1.5; opacity: 1;"></path></g><g class="mark-text role-legend-label" style="pointer-events: none;"><text text-anchor="start" transform="translate(16,9)" style="font-family: sans-serif; font-size: 10px; fill: #000; opacity: 1;">segs</text></g></g><path class="foreground" d="" style="pointer-events: none; display: none; fill: none;"></path></g></g></g><path class="foreground" d="" style="pointer-events: none; display: none; fill: none;"></path></g></g><g class="mark-text role-legend-title" style="pointer-events: none;"><text text-anchor="start" transform="translate(0,9)" style="font-family: sans-serif; font-size: 11px; font-weight: bold; fill: #000; opacity: 1;">label</text></g></g><path class="foreground" d="" style="pointer-events: none; display: none; fill: none;"></path></g></g></g><path class="foreground" d="" style="display: none; fill: none;"></path></g></g></g></svg>